<?xml version="1.0" encoding="utf-8"?>
<!-- Generator: Adobe Illustrator 26.3.1, SVG Export Plug-In . SVG Version: 6.00 Build 0)  -->
<svg version="1.1" id="Layer_1" xmlns="http://www.w3.org/2000/svg" xmlns:xlink="http://www.w3.org/1999/xlink" x="0px" y="0px"
	 viewBox="0 0 345.2 302" style="enable-background:new 0 0 345.2 302;" xml:space="preserve">
<style type="text/css">
	.st0{fill:#00DFE8;}
</style>
<g id="Background">
</g>
<g id="Graphic_element">
</g>
<g id="Text">
	<g>
		<g>
			<g>
				<path class="st0" d="M170.8,19c27.8,0,54.3,8.5,76.8,24.7c22,15.8,38.5,37.5,47.5,62.9l-9.6,3.4
					c-17.3-48.3-63.4-80.8-114.7-80.8c-42.7,0-81.5,21.7-103.8,58.1L58.2,82c11.6-18.9,27.9-34.7,47.1-45.7
					C125.2,25,147.8,19,170.8,19z"/>
			</g>
			<g>
				<path class="st0" d="M42.4,119.9l10,2.4c-2.3,9.4-3.4,19-3.4,28.7c0,67.2,54.6,121.8,121.8,121.8S292.5,218.2,292.5,151h10.2
					c0,35.3-13.7,68.4-38.7,93.4C239.2,269.3,206,283,170.8,283s-68.4-13.7-93.4-38.7c-24.9-24.9-38.7-58.1-38.7-93.4
					C38.7,140.5,40,130,42.4,119.9z"/>
			</g>
			<g>
				<path class="st0" d="M163,59.2l67,67h-56.7v91.9L323.4,68l7.2,7.2L163,242.8V126.2H14.5V116H163V59.2z M205.3,116l-32-32v32
					C173.3,116,205.3,116,205.3,116z"/>
			</g>
		</g>
	</g>
</g>
</svg>
